<svg id="Слой_1" data-name="Слой 1" xmlns="http://www.w3.org/2000/svg" viewBox="0 0 1033 1033"><defs><style>.cls-1{fill:#fff;stroke-linecap:round;}.cls-1,.cls-2{stroke:#000;stroke-miterlimit:10;stroke-width:50px;}.cls-2{fill:none;}</style></defs><title>logo</title><circle class="cls-1" cx="516.5" cy="516.5" r="491.5"/><path d="M779.35477,380.46328H435.84645a129.02364,129.02364,0,1,0-.19227,63.9732H703.27854V549.90581h55.32817V444.43648h20.74806V549.90581h55.32817V380.46328ZM310.19924,490.95669a78.40038,78.40038,0,1,1,78.40033-78.40033A78.4004,78.4004,0,0,1,310.19924,490.95669Z" transform="translate(4 5)"/><path class="cls-2" d="M333.94166,796.886s81.0793,66.97855,188.5975,66.97855S727,796.886,727,796.886" transform="translate(4 5)"/><polygon points="470 607 524 607 497 574 534 544 641 661 470 661 470 607"/></svg>